<svg width="56" height="56" viewBox="0 0 56 56" fill="none" xmlns="http://www.w3.org/2000/svg">
<path fill-rule="evenodd" clip-rule="evenodd" d="M17.3332 0C15.1252 0 13.3333 1.79197 13.3333 3.99993C13.3333 5.74014 14.4466 7.22137 15.9997 7.77039V10.7998C13.3878 11.3293 11.3293 13.3878 10.7998 15.9997H7.77039C7.22084 14.4466 5.73956 13.3333 3.99993 13.3333C1.79197 13.3333 0 15.1252 0 17.3332C0 19.5412 1.79197 21.3331 3.99993 21.3331C5.74014 21.3331 7.22137 20.2198 7.77039 18.6667H10.6663V26.6665H7.77039C7.22084 25.1134 5.73956 24.0001 3.99993 24.0001C1.79197 24.0001 0 25.792 0 28C0 30.208 1.79197 31.9999 3.99993 31.9999C5.74014 31.9999 7.22137 30.8866 7.77039 29.3335H10.6663V37.3333H7.77039C7.22084 35.7802 5.73956 34.6669 3.99993 34.6669C1.79197 34.6669 0 36.4588 0 38.6668C0 40.8748 1.79197 42.6667 3.99993 42.6667C5.74014 42.6667 7.22137 41.5534 7.77039 40.0003H10.7998C11.3293 42.6122 13.3878 44.6707 15.9997 45.2002V48.2296C14.4466 48.7792 13.3333 50.2604 13.3333 52.0001C13.3333 54.208 15.1252 56 17.3332 56C19.5412 56 21.3331 54.208 21.3331 52.0001C21.3331 50.2599 20.2198 48.7786 18.6667 48.2296V45.3337H26.6665V48.2296C25.1134 48.7792 24.0001 50.2604 24.0001 52.0001C24.0001 54.208 25.792 56 28 56C30.208 56 31.9999 54.208 31.9999 52.0001C31.9999 50.2599 30.8866 48.7786 29.3335 48.2296V45.3337H37.3333V48.2296C35.7802 48.7792 34.6669 50.2604 34.6669 52.0001C34.6669 54.208 36.4588 56 38.6668 56C40.8748 56 42.6667 54.208 42.6667 52.0001C42.6667 50.2599 41.5534 48.7786 40.0003 48.2296V45.2002C42.6122 44.6707 44.6707 42.6122 45.2002 40.0003H48.2296C48.7792 41.5534 50.2604 42.6667 52.0001 42.6667C54.208 42.6667 56 40.8748 56 38.6668C56 36.4588 54.208 34.6669 52.0001 34.6669C50.2599 34.6669 48.7786 35.7802 48.2296 37.3333H45.3337V29.3335H48.2296C48.7792 30.8866 50.2604 31.9999 52.0001 31.9999C54.208 31.9999 56 30.208 56 28C56 25.792 54.208 24.0001 52.0001 24.0001C50.2599 24.0001 48.7786 25.1134 48.2296 26.6665H45.3337V18.6667H48.2296C48.7792 20.2198 50.2604 21.3331 52.0001 21.3331C54.208 21.3331 56 19.5412 56 17.3332C56 15.1252 54.208 13.3333 52.0001 13.3333C50.2599 13.3333 48.7786 14.4466 48.2296 15.9997H45.2002C44.6707 13.3878 42.6122 11.3293 40.0003 10.7998V7.77039C41.5534 7.22084 42.6667 5.73956 42.6667 3.99993C42.6667 1.79197 40.8748 0 38.6668 0C36.4588 0 34.6669 1.79197 34.6669 3.99993C34.6669 5.74014 35.7802 7.22137 37.3333 7.77039V10.6663H29.3335V7.77039C30.8866 7.22084 31.9999 5.73956 31.9999 3.99993C31.9999 1.79197 30.208 0 28 0C25.792 0 24.0001 1.79197 24.0001 3.99993C24.0001 5.74014 25.1134 7.22137 26.6665 7.77039V10.6663H18.6667V7.77039C20.2198 7.22084 21.3331 5.73956 21.3331 3.99993C21.3331 1.79197 19.5412 0 17.3332 0ZM17.3332 2.66647C18.0694 2.66647 18.6667 3.26379 18.6667 3.99993C18.6667 4.73608 18.0694 5.3334 17.3332 5.3334C16.5971 5.3334 15.9997 4.73608 15.9997 3.99993C15.9997 3.26379 16.5971 2.66647 17.3332 2.66647ZM27.9995 2.66647C28.7357 2.66647 29.333 3.26379 29.333 3.99993C29.333 4.73608 28.7357 5.3334 27.9995 5.3334C27.2634 5.3334 26.6661 4.73608 26.6661 3.99993C26.6661 3.26379 27.2634 2.66647 27.9995 2.66647ZM38.6659 2.66647C39.402 2.66647 39.9993 3.26379 39.9993 3.99993C39.9993 4.73608 39.402 5.3334 38.6659 5.3334C37.9297 5.3334 37.3324 4.73608 37.3324 3.99993C37.3324 3.26379 37.9297 2.66647 38.6659 2.66647ZM17.3325 13.3328H38.6659C40.8739 13.3328 42.6658 15.1248 42.6658 17.3327V38.6661C42.6658 40.8741 40.8739 42.666 38.6659 42.666H17.3325C15.1246 42.666 13.3326 40.8741 13.3326 38.6661V17.3327C13.3326 15.1248 15.1246 13.3328 17.3325 13.3328ZM3.99902 15.9993C4.73517 15.9993 5.33249 16.5966 5.33249 17.3327C5.33249 18.0689 4.73517 18.6662 3.99902 18.6662C3.26287 18.6662 2.66556 18.0689 2.66556 17.3327C2.66556 16.5966 3.26287 15.9993 3.99902 15.9993ZM51.9982 15.9993C52.7344 15.9993 53.3317 16.5966 53.3317 17.3327C53.3317 18.0689 52.7344 18.6662 51.9982 18.6662C51.2621 18.6662 50.6648 18.0689 50.6648 17.3327C50.6648 16.5966 51.2621 15.9993 51.9982 15.9993ZM3.99936 26.6661C4.73551 26.6661 5.33283 27.2634 5.33283 27.9995C5.33283 28.7357 4.73551 29.333 3.99936 29.333C3.26321 29.333 2.6659 28.7357 2.6659 27.9995C2.6659 27.2634 3.26321 26.6661 3.99936 26.6661ZM51.9986 26.6661C52.7347 26.6661 53.332 27.2634 53.332 27.9995C53.332 28.7357 52.7347 29.333 51.9986 29.333C51.2624 29.333 50.6651 28.7357 50.6651 27.9995C50.6651 27.2634 51.2624 26.6661 51.9986 26.6661ZM3.99936 37.3324C4.73551 37.3324 5.33283 37.9297 5.33283 38.6659C5.33283 39.402 4.73551 39.9993 3.99936 39.9993C3.26321 39.9993 2.6659 39.402 2.6659 38.6659C2.6659 37.9297 3.26321 37.3324 3.99936 37.3324ZM51.9986 37.3324C52.7347 37.3324 53.332 37.9297 53.332 38.6659C53.332 39.402 52.7347 39.9993 51.9986 39.9993C51.2624 39.9993 50.6651 39.402 50.6651 38.6659C50.6651 37.9297 51.2624 37.3324 51.9986 37.3324ZM17.3329 50.6659C18.069 50.6659 18.6663 51.2632 18.6663 51.9994C18.6663 52.7355 18.069 53.3328 17.3329 53.3328C16.5967 53.3328 15.9994 52.7355 15.9994 51.9994C15.9994 51.2632 16.5967 50.6659 17.3329 50.6659ZM27.9992 50.6659C28.7353 50.6659 29.3327 51.2632 29.3327 51.9994C29.3327 52.7355 28.7353 53.3328 27.9992 53.3328C27.2631 53.3328 26.6657 52.7355 26.6657 51.9994C26.6657 51.2632 27.2631 50.6659 27.9992 50.6659ZM38.6655 50.6659C39.4017 50.6659 39.999 51.2632 39.999 51.9994C39.999 52.7355 39.4017 53.3328 38.6655 53.3328C37.9294 53.3328 37.3321 52.7355 37.3321 51.9994C37.3321 51.2632 37.9294 50.6659 38.6655 50.6659Z" fill="url(#paint0_linear_8381_6222)"/>
<path d="M33.0582 32.6384H30.3559V27.2902C30.3559 26.5019 29.9791 26.1078 29.2255 26.1078C28.6132 26.1078 28.101 26.3928 27.6889 26.9628V32.6384H24.9689V27.2902C24.9689 26.5019 24.5921 26.1078 23.8386 26.1078C23.2734 26.1078 22.767 26.3928 22.3196 26.9628V32.6384H19.5996V23.8521H22.3196V24.9254C22.5433 24.6222 22.9142 24.3311 23.4323 24.0522C23.9504 23.7733 24.5156 23.6338 25.1279 23.6338C26.3878 23.6338 27.1944 24.1553 27.5476 25.1982C27.8184 24.7738 28.2188 24.4099 28.7487 24.1068C29.2903 23.7914 29.8732 23.6338 30.4972 23.6338C31.3097 23.6338 31.9396 23.8581 32.3871 24.3069C32.8345 24.7434 33.0582 25.3983 33.0582 26.2715V32.6384Z" fill="#6D7CFF"/>
<path d="M38.1267 32.3473C37.797 32.6869 37.4085 32.8567 36.961 32.8567C36.5136 32.8567 36.125 32.6869 35.7953 32.3473C35.4656 32.0078 35.3008 31.6076 35.3008 31.1467C35.3008 30.6859 35.4656 30.2857 35.7953 29.9461C36.125 29.6066 36.5136 29.4368 36.961 29.4368C37.4085 29.4368 37.797 29.6066 38.1267 29.9461C38.4564 30.2857 38.6213 30.6859 38.6213 31.1467C38.6213 31.6076 38.4564 32.0078 38.1267 32.3473Z" fill="#6D7CFF"/>
<defs>
<linearGradient id="paint0_linear_8381_6222" x1="7.76087" y1="-7.00001" x2="61.4237" y2="7.11734" gradientUnits="userSpaceOnUse">
<stop stop-color="#5667FF"/>
<stop offset="1" stop-color="#8699FF"/>
</linearGradient>
</defs>
</svg>
