<svg width="56" height="56" viewBox="0 0 56 56" fill="none" xmlns="http://www.w3.org/2000/svg">
<mask id="path-1-inside-1_5571_979" fill="white">
<path d="M34.4906 0C37.8947 0 40.7305 2.49957 41.3537 5.80911C47.4907 6.44228 52.3544 11.6111 52.6516 18.0452C52.661 18.2519 52.6638 18.7557 52.66 18.799C54.5789 20.9211 55.4622 23.1067 55.4622 25.8462C55.4622 28.8721 54.3111 31.7861 52.1858 33.9687C51.6784 34.4904 51.1288 34.9562 50.5447 35.363C51.0184 36.5755 51.2679 37.8966 51.2679 39.2562C51.2679 44.0048 48.2238 47.9942 44.1788 48.7072C43.5595 52.8375 40.0837 56 35.8884 56C32.9706 56 30.4007 54.4702 28.8981 52.1486C27.3954 54.4702 24.8255 56 21.9077 56C17.7125 56 14.2367 52.8375 13.6174 48.7072C9.57238 47.9942 6.52827 44.0048 6.52827 39.2562C6.52827 37.8966 6.77777 36.5755 7.25151 35.363C6.6673 34.9562 6.11774 34.4904 5.61034 33.9687C3.48514 31.7861 2.33398 28.8721 2.33398 25.8462C2.33398 23.1625 3.2323 20.9967 5.14405 18.8678C5.13516 18.802 5.14405 17.2308 5.44131 15.7995C6.62002 10.4543 11.0245 6.36677 16.4425 5.80862C17.0656 2.49945 19.9014 0 23.3056 0C25.5923 0 27.6225 1.12789 28.8982 2.87114C30.1738 1.12788 32.204 0 34.4907 0H34.4906ZM30.2963 7.17982V28.7183C31.4647 27.8168 32.9168 27.2827 34.4906 27.2827C35.2625 27.2827 35.8884 27.9255 35.8884 28.7188C35.8884 29.5116 35.2625 30.1543 34.4906 30.1543C32.1739 30.1543 30.2963 32.0832 30.2963 34.462V47.3851C30.2963 50.5572 32.7998 53.1289 35.8884 53.1289C38.5548 53.1289 40.7853 51.2126 41.3452 48.6476C38.2223 47.9298 35.8884 45.0658 35.8884 41.6418C35.8884 40.8486 36.5147 40.2058 37.2866 40.2058C38.0586 40.2058 38.6849 40.8486 38.6849 41.6418C38.6849 44.0207 40.5625 45.9495 42.8792 45.9495C45.9262 45.9495 48.4713 42.9899 48.4713 39.2567C48.4713 38.3524 48.3215 37.4769 48.0364 36.6683C47.2224 36.9659 46.3779 37.1649 45.5213 37.263C45.6219 37.7491 45.6753 38.2529 45.6753 38.7697C45.6753 39.563 45.0494 40.2058 44.277 40.2058C43.5051 40.2058 42.8793 39.563 42.8793 38.7697C42.8793 36.3909 41.0012 34.462 38.6849 34.462C37.9126 34.462 37.2867 33.8192 37.2867 33.0265C37.2867 32.2332 37.9126 31.5904 38.6849 31.5904C40.9717 31.5904 43.0023 32.7183 44.2775 34.462C45.3795 34.462 46.4716 34.2409 47.4888 33.8087C48.4976 33.3798 49.4184 32.7505 50.209 31.939C51.8043 30.3001 52.6657 28.1183 52.6657 25.8467C52.6657 23.7173 51.9743 22.1415 50.2792 20.4005C49.8696 19.8775 49.0752 19.4145 48.4942 19.177C46.7453 18.4621 44.7058 18.6818 43.1207 19.8775C43.0837 21.6154 42.4017 23.3418 41.0713 24.7082C40.5254 25.2693 39.6403 25.2693 39.094 24.7082C38.5481 24.1477 38.5481 23.2386 39.094 22.6775C40.7324 20.9953 40.7324 18.4933 39.094 16.8111C38.5481 16.2501 38.5481 15.341 39.094 14.7804C39.6402 14.2193 40.5254 14.2193 41.0713 14.7804C41.6915 15.4174 42.1709 16.1327 42.5093 16.8905C44.7408 15.6795 47.3711 15.5838 49.6546 16.5612C48.7109 12.0093 44.7703 8.61595 40.0826 8.61595C37.7664 8.61595 35.8883 10.5448 35.8883 12.9236C35.8883 13.7169 35.2624 14.3597 34.4905 14.3597C33.7181 14.3597 33.0923 13.7169 33.0923 12.9236C33.0923 9.51589 35.4038 6.6626 38.5046 5.92795C37.9826 4.1597 36.3826 2.87269 34.4905 2.87269C32.1738 2.87269 30.2962 4.80106 30.2962 7.18038L30.2963 7.17982ZM27.4998 7.17982C27.4998 4.80049 25.6222 2.87212 23.3055 2.87212C21.4133 2.87212 19.8133 4.15914 19.2914 5.92738C22.3922 6.66201 24.7037 9.51532 24.7037 12.9231C24.7037 13.7163 24.0778 14.3591 23.3055 14.3591C22.5335 14.3591 21.9077 13.7163 21.9077 12.9231C21.9077 10.5442 20.0296 8.61539 17.7134 8.61539C12.6581 8.61539 8.4981 12.5519 7.98076 17.6028C10.6626 16.8947 13.5851 17.5831 15.7135 19.5701C16.7195 18.9946 17.878 18.6667 19.1111 18.6667C19.8835 18.6667 20.5094 19.3095 20.5094 20.1028C20.5094 20.8956 19.8835 21.5384 19.1111 21.5384C16.7949 21.5384 14.9168 23.4672 14.9168 25.8461C14.9168 26.6393 14.291 27.2821 13.519 27.2821C12.7467 27.2821 12.1208 26.6393 12.1208 25.8461C12.1208 24.1974 12.6619 22.6783 13.5719 21.4662C11.7758 19.986 9.26098 19.7855 7.26269 20.9807C7.15503 21.0451 6.64806 21.4696 6.52167 21.6408C5.55079 22.9595 5.13047 24.2576 5.13047 25.8461C5.13047 28.1177 5.9918 30.2995 7.58714 31.9384C8.37779 32.7499 9.29854 33.3792 10.3073 33.808C11.3245 34.2402 12.4171 34.4614 13.5191 34.4614C14.291 34.4614 14.9169 35.1047 14.9169 35.8975C14.9169 36.6902 14.291 37.3335 13.5191 37.3335C12.2379 37.3335 10.9655 37.1085 9.75967 36.6676C9.47459 37.4763 9.3248 38.3518 9.3248 39.2561C9.3248 42.4758 11.2174 45.1196 13.6928 45.7864C14.3893 42.6407 17.0964 40.2802 20.3531 40.2071C20.5726 38.7975 21.2275 37.4369 22.3169 36.3181C22.8631 35.757 23.7483 35.757 24.2942 36.3181C24.8405 36.8787 24.8405 37.7878 24.2942 38.3489C22.6562 40.0311 22.6562 42.533 24.2942 44.2152C24.8405 44.7763 24.8405 45.6854 24.2942 46.246C23.7483 46.807 22.8632 46.807 22.3169 46.246C21.4143 45.3191 20.81 44.2263 20.5043 43.0768C18.1904 43.0796 16.3152 45.0071 16.3152 47.3844C16.3152 50.5565 18.8192 53.1282 21.9077 53.1282C24.9963 53.1282 27.4998 50.5565 27.4998 47.3844V23.6528C26.0159 25.0172 24.0559 25.8465 21.9077 25.8465C21.1353 25.8465 20.5095 25.2037 20.5095 24.4109C20.5095 23.6176 21.1353 22.9748 21.9077 22.9748C24.9963 22.9748 27.4998 20.4032 27.4998 17.2311L27.4998 7.17982Z"/>
</mask>
<path d="M34.4906 0C37.8947 0 40.7305 2.49957 41.3537 5.80911C47.4907 6.44228 52.3544 11.6111 52.6516 18.0452C52.661 18.2519 52.6638 18.7557 52.66 18.799C54.5789 20.9211 55.4622 23.1067 55.4622 25.8462C55.4622 28.8721 54.3111 31.7861 52.1858 33.9687C51.6784 34.4904 51.1288 34.9562 50.5447 35.363C51.0184 36.5755 51.2679 37.8966 51.2679 39.2562C51.2679 44.0048 48.2238 47.9942 44.1788 48.7072C43.5595 52.8375 40.0837 56 35.8884 56C32.9706 56 30.4007 54.4702 28.8981 52.1486C27.3954 54.4702 24.8255 56 21.9077 56C17.7125 56 14.2367 52.8375 13.6174 48.7072C9.57238 47.9942 6.52827 44.0048 6.52827 39.2562C6.52827 37.8966 6.77777 36.5755 7.25151 35.363C6.6673 34.9562 6.11774 34.4904 5.61034 33.9687C3.48514 31.7861 2.33398 28.8721 2.33398 25.8462C2.33398 23.1625 3.2323 20.9967 5.14405 18.8678C5.13516 18.802 5.14405 17.2308 5.44131 15.7995C6.62002 10.4543 11.0245 6.36677 16.4425 5.80862C17.0656 2.49945 19.9014 0 23.3056 0C25.5923 0 27.6225 1.12789 28.8982 2.87114C30.1738 1.12788 32.204 0 34.4907 0H34.4906ZM30.2963 7.17982V28.7183C31.4647 27.8168 32.9168 27.2827 34.4906 27.2827C35.2625 27.2827 35.8884 27.9255 35.8884 28.7188C35.8884 29.5116 35.2625 30.1543 34.4906 30.1543C32.1739 30.1543 30.2963 32.0832 30.2963 34.462V47.3851C30.2963 50.5572 32.7998 53.1289 35.8884 53.1289C38.5548 53.1289 40.7853 51.2126 41.3452 48.6476C38.2223 47.9298 35.8884 45.0658 35.8884 41.6418C35.8884 40.8486 36.5147 40.2058 37.2866 40.2058C38.0586 40.2058 38.6849 40.8486 38.6849 41.6418C38.6849 44.0207 40.5625 45.9495 42.8792 45.9495C45.9262 45.9495 48.4713 42.9899 48.4713 39.2567C48.4713 38.3524 48.3215 37.4769 48.0364 36.6683C47.2224 36.9659 46.3779 37.1649 45.5213 37.263C45.6219 37.7491 45.6753 38.2529 45.6753 38.7697C45.6753 39.563 45.0494 40.2058 44.277 40.2058C43.5051 40.2058 42.8793 39.563 42.8793 38.7697C42.8793 36.3909 41.0012 34.462 38.6849 34.462C37.9126 34.462 37.2867 33.8192 37.2867 33.0265C37.2867 32.2332 37.9126 31.5904 38.6849 31.5904C40.9717 31.5904 43.0023 32.7183 44.2775 34.462C45.3795 34.462 46.4716 34.2409 47.4888 33.8087C48.4976 33.3798 49.4184 32.7505 50.209 31.939C51.8043 30.3001 52.6657 28.1183 52.6657 25.8467C52.6657 23.7173 51.9743 22.1415 50.2792 20.4005C49.8696 19.8775 49.0752 19.4145 48.4942 19.177C46.7453 18.4621 44.7058 18.6818 43.1207 19.8775C43.0837 21.6154 42.4017 23.3418 41.0713 24.7082C40.5254 25.2693 39.6403 25.2693 39.094 24.7082C38.5481 24.1477 38.5481 23.2386 39.094 22.6775C40.7324 20.9953 40.7324 18.4933 39.094 16.8111C38.5481 16.2501 38.5481 15.341 39.094 14.7804C39.6402 14.2193 40.5254 14.2193 41.0713 14.7804C41.6915 15.4174 42.1709 16.1327 42.5093 16.8905C44.7408 15.6795 47.3711 15.5838 49.6546 16.5612C48.7109 12.0093 44.7703 8.61595 40.0826 8.61595C37.7664 8.61595 35.8883 10.5448 35.8883 12.9236C35.8883 13.7169 35.2624 14.3597 34.4905 14.3597C33.7181 14.3597 33.0923 13.7169 33.0923 12.9236C33.0923 9.51589 35.4038 6.6626 38.5046 5.92795C37.9826 4.1597 36.3826 2.87269 34.4905 2.87269C32.1738 2.87269 30.2962 4.80106 30.2962 7.18038L30.2963 7.17982ZM27.4998 7.17982C27.4998 4.80049 25.6222 2.87212 23.3055 2.87212C21.4133 2.87212 19.8133 4.15914 19.2914 5.92738C22.3922 6.66201 24.7037 9.51532 24.7037 12.9231C24.7037 13.7163 24.0778 14.3591 23.3055 14.3591C22.5335 14.3591 21.9077 13.7163 21.9077 12.9231C21.9077 10.5442 20.0296 8.61539 17.7134 8.61539C12.6581 8.61539 8.4981 12.5519 7.98076 17.6028C10.6626 16.8947 13.5851 17.5831 15.7135 19.5701C16.7195 18.9946 17.878 18.6667 19.1111 18.6667C19.8835 18.6667 20.5094 19.3095 20.5094 20.1028C20.5094 20.8956 19.8835 21.5384 19.1111 21.5384C16.7949 21.5384 14.9168 23.4672 14.9168 25.8461C14.9168 26.6393 14.291 27.2821 13.519 27.2821C12.7467 27.2821 12.1208 26.6393 12.1208 25.8461C12.1208 24.1974 12.6619 22.6783 13.5719 21.4662C11.7758 19.986 9.26098 19.7855 7.26269 20.9807C7.15503 21.0451 6.64806 21.4696 6.52167 21.6408C5.55079 22.9595 5.13047 24.2576 5.13047 25.8461C5.13047 28.1177 5.9918 30.2995 7.58714 31.9384C8.37779 32.7499 9.29854 33.3792 10.3073 33.808C11.3245 34.2402 12.4171 34.4614 13.5191 34.4614C14.291 34.4614 14.9169 35.1047 14.9169 35.8975C14.9169 36.6902 14.291 37.3335 13.5191 37.3335C12.2379 37.3335 10.9655 37.1085 9.75967 36.6676C9.47459 37.4763 9.3248 38.3518 9.3248 39.2561C9.3248 42.4758 11.2174 45.1196 13.6928 45.7864C14.3893 42.6407 17.0964 40.2802 20.3531 40.2071C20.5726 38.7975 21.2275 37.4369 22.3169 36.3181C22.8631 35.757 23.7483 35.757 24.2942 36.3181C24.8405 36.8787 24.8405 37.7878 24.2942 38.3489C22.6562 40.0311 22.6562 42.533 24.2942 44.2152C24.8405 44.7763 24.8405 45.6854 24.2942 46.246C23.7483 46.807 22.8632 46.807 22.3169 46.246C21.4143 45.3191 20.81 44.2263 20.5043 43.0768C18.1904 43.0796 16.3152 45.0071 16.3152 47.3844C16.3152 50.5565 18.8192 53.1282 21.9077 53.1282C24.9963 53.1282 27.4998 50.5565 27.4998 47.3844V23.6528C26.0159 25.0172 24.0559 25.8465 21.9077 25.8465C21.1353 25.8465 20.5095 25.2037 20.5095 24.4109C20.5095 23.6176 21.1353 22.9748 21.9077 22.9748C24.9963 22.9748 27.4998 20.4032 27.4998 17.2311L27.4998 7.17982Z" fill="url(#paint0_linear_5571_979)" stroke="url(#paint1_linear_5571_979)" stroke-width="2.66667" mask="url(#path-1-inside-1_5571_979)"/>
<defs>
<linearGradient id="paint0_linear_5571_979" x1="9.69686" y1="-7.00001" x2="60.9392" y2="5.78926" gradientUnits="userSpaceOnUse">
<stop stop-color="#5667FF"/>
<stop offset="1" stop-color="#8699FF"/>
</linearGradient>
<linearGradient id="paint1_linear_5571_979" x1="9.69686" y1="-7.00001" x2="60.9392" y2="5.78926" gradientUnits="userSpaceOnUse">
<stop stop-color="#5667FF"/>
<stop offset="1" stop-color="#8699FF"/>
</linearGradient>
</defs>
</svg>
